<!--
  -  © 2023 Raymond Pattend & Narro LLC. All rights reserved.
  -->

<svg width="64" height="64" viewBox="0 0 64 64" fill="none" xmlns="http://www.w3.org/2000/svg">
<rect width="64" height="64" rx="10" fill="#1D1D1B"/>
<path d="M18.3843 16.2358H33.5234C35.8086 16.2358 37.7891 16.4771 39.4648 16.9595C41.1406 17.4292 42.5308 18.1147 43.6353 19.0161C44.7397 19.9175 45.5586 21.0156 46.0918 22.3105C46.6377 23.6055 46.9106 25.0718 46.9106 26.7095C46.9106 27.814 46.7773 28.8677 46.5107 29.8706C46.2441 30.8608 45.8315 31.7749 45.2729 32.6128C44.7271 33.4507 44.0352 34.1997 43.1973 34.8599C42.3594 35.5073 41.3755 36.0469 40.2456 36.4785L46.7202 46H39.3315L33.7329 37.5449H33.5615L24.4209 37.5259V46H18.3843V16.2358ZM33.6758 32.3081C34.8184 32.3081 35.8149 32.1748 36.6655 31.9082C37.5288 31.6416 38.2461 31.2671 38.8174 30.7847C39.4014 30.3022 39.833 29.7183 40.1123 29.0327C40.4043 28.3345 40.5503 27.5601 40.5503 26.7095C40.5503 25.0464 39.979 23.7642 38.8364 22.8628C37.6938 21.9487 35.9736 21.4917 33.6758 21.4917H24.4209V32.3081H33.6758Z" fill="white"/>
</svg>
