<!--
  -  Copyright 2023 Raymond Pattend & Narro LLC. All rights reserved.
  -->

<svg width="155" height="49" viewBox="0 0 155 49" fill="none" xmlns="http://www.w3.org/2000/svg">
<rect width="155" height="49" fill="#1D1D1B"/>
<path d="M28.6821 8.55225H34.5049C35.3838 8.55225 36.1455 8.64502 36.79 8.83057C37.4346 9.01123 37.9692 9.2749 38.394 9.62158C38.8188 9.96826 39.1338 10.3906 39.3389 10.8887C39.5488 11.3867 39.6538 11.9507 39.6538 12.5806C39.6538 13.0054 39.6025 13.4106 39.5 13.7964C39.3975 14.1772 39.2388 14.5288 39.0239 14.8511C38.814 15.1733 38.5479 15.4614 38.2256 15.7153C37.9033 15.9644 37.5249 16.1719 37.0903 16.3379L39.5806 20H36.7388L34.5854 16.748H34.5195L31.0039 16.7407V20H28.6821V8.55225ZM34.5635 14.7339C35.0029 14.7339 35.3862 14.6826 35.7134 14.5801C36.0454 14.4775 36.3213 14.3335 36.541 14.1479C36.7656 13.9624 36.9316 13.7378 37.0391 13.4741C37.1514 13.2056 37.2075 12.9077 37.2075 12.5806C37.2075 11.9409 36.9878 11.4478 36.5483 11.1011C36.1089 10.7495 35.4473 10.5737 34.5635 10.5737H31.0039V14.7339H34.5635ZM46.3115 8.55225H48.7725L54.3096 20H51.8706L50.9551 18.0737H44.2681L43.3818 20H40.9355L46.3115 8.55225ZM50.0396 16.1621L47.564 10.9619L45.1543 16.1621H50.0396ZM59.5977 17.1655L54.5952 8.55225H57.2246L60.7476 15.0635L64.2266 8.55225H66.856L61.9194 17.1509V20H59.5977V17.1655ZM68.6211 8.55225H70.9429L75.103 12.7271L79.2632 8.55225H81.585V20H79.2632V11.7676L75.103 15.7739L70.9429 11.7676V20H68.6211V8.55225ZM84.1704 14.2432C84.1704 13.3789 84.3291 12.5879 84.6465 11.8701C84.9639 11.1523 85.4082 10.5371 85.9795 10.0244C86.5557 9.50684 87.2441 9.10645 88.0449 8.82324C88.8506 8.54004 89.7417 8.39844 90.7183 8.39844C91.6899 8.39844 92.5786 8.54004 93.3843 8.82324C94.1899 9.10645 94.8784 9.50684 95.4497 10.0244C96.0259 10.5371 96.4727 11.1523 96.79 11.8701C97.1074 12.5879 97.2661 13.3789 97.2661 14.2432C97.2661 15.1123 97.1074 15.9106 96.79 16.6382C96.4727 17.3608 96.0259 17.9834 95.4497 18.5059C94.8784 19.0283 94.1899 19.436 93.3843 19.729C92.5786 20.0171 91.6899 20.1611 90.7183 20.1611C89.7417 20.1611 88.8506 20.0171 88.0449 19.729C87.2441 19.436 86.5557 19.0283 85.9795 18.5059C85.4082 17.9834 84.9639 17.3608 84.6465 16.6382C84.3291 15.9106 84.1704 15.1123 84.1704 14.2432ZM86.4922 14.2432C86.4922 14.834 86.5972 15.3662 86.8071 15.8398C87.022 16.3135 87.3174 16.7188 87.6934 17.0557C88.0742 17.3877 88.521 17.644 89.0337 17.8247C89.5513 18.0054 90.1128 18.0957 90.7183 18.0957C91.3237 18.0957 91.8828 18.0054 92.3955 17.8247C92.9131 17.644 93.3599 17.3877 93.7358 17.0557C94.1118 16.7188 94.4072 16.3135 94.6221 15.8398C94.8369 15.3662 94.9443 14.834 94.9443 14.2432C94.9443 13.6523 94.8369 13.1226 94.6221 12.6538C94.4072 12.1851 94.1118 11.7896 93.7358 11.4673C93.3599 11.1401 92.9131 10.8911 92.3955 10.7202C91.8828 10.5493 91.3237 10.4639 90.7183 10.4639C90.1128 10.4639 89.5513 10.5493 89.0337 10.7202C88.521 10.8911 88.0742 11.1401 87.6934 11.4673C87.3174 11.7896 87.022 12.1851 86.8071 12.6538C86.5972 13.1226 86.4922 13.6523 86.4922 14.2432ZM99.8296 8.55225H102.151L109.285 12.2876V8.55225H111.607V20H109.285V14.7485L102.151 11.0352V20H99.8296V8.55225ZM114.844 8.55225H119.041C120.267 8.55225 121.331 8.68408 122.234 8.94775C123.138 9.21143 123.885 9.58984 124.476 10.083C125.071 10.5713 125.513 11.167 125.801 11.8701C126.094 12.5684 126.241 13.3545 126.241 14.2285C126.241 15.0586 126.097 15.8276 125.809 16.5356C125.521 17.2388 125.081 17.8491 124.49 18.3667C123.899 18.8794 123.152 19.2822 122.249 19.5752C121.346 19.8633 120.281 20.0073 119.056 20.0073L114.844 20V8.55225ZM119.612 17.9932C120.306 17.9932 120.914 17.9053 121.436 17.7295C121.958 17.5488 122.393 17.2949 122.74 16.9678C123.091 16.6406 123.355 16.2451 123.531 15.7812C123.707 15.3174 123.794 14.7998 123.794 14.2285C123.794 13.667 123.707 13.1616 123.531 12.7124C123.355 12.2583 123.091 11.875 122.74 11.5625C122.393 11.2451 121.958 11.001 121.436 10.8301C120.914 10.6592 120.306 10.5737 119.612 10.5737H117.166V17.9932H119.612ZM31.8389 27.5522H37.874C38.7529 27.5522 39.5146 27.6475 40.1592 27.8379C40.8037 28.0283 41.3384 28.3042 41.7632 28.6655C42.188 29.022 42.5029 29.459 42.708 29.9766C42.918 30.4941 43.0229 31.0776 43.0229 31.7271C43.0229 32.3374 42.9204 32.9014 42.7153 33.4189C42.5103 33.9365 42.1953 34.3857 41.7705 34.7666C41.3506 35.1426 40.8184 35.438 40.1738 35.6528C39.5293 35.8628 38.7676 35.9678 37.8887 35.9678L34.1606 35.9604V39H31.8389V27.5522ZM37.9326 33.9536C38.3721 33.9536 38.7554 33.9023 39.0825 33.7998C39.4146 33.6924 39.6904 33.5435 39.9102 33.353C40.1348 33.1577 40.3008 32.9233 40.4082 32.6499C40.5205 32.3716 40.5767 32.064 40.5767 31.7271C40.5767 31.0483 40.3545 30.521 39.9102 30.145C39.4707 29.7642 38.8115 29.5737 37.9326 29.5737H34.1606V33.9536H37.9326ZM49.4683 27.5522H51.9292L57.4663 39H55.0273L54.1118 37.0737H47.4248L46.5386 39H44.0923L49.4683 27.5522ZM53.1963 35.1621L50.7207 29.9619L48.311 35.1621H53.1963ZM62.6958 29.5884H58.4697V27.5522H69.2437V29.5884H65.0176V39H62.6958V29.5884ZM75.1763 29.5884H70.9502V27.5522H81.7241V29.5884H77.498V39H75.1763V29.5884ZM84.207 27.5522H93.9556V29.5884H86.5288V31.8735H93.106V33.7852H86.5288V36.9712H94.1094V39H84.207V27.5522ZM96.6729 27.5522H98.9946L106.128 31.2876V27.5522H108.45V39H106.128V33.7485L98.9946 30.0352V39H96.6729V27.5522ZM111.688 27.5522H115.884C117.11 27.5522 118.174 27.6841 119.078 27.9478C119.981 28.2114 120.728 28.5898 121.319 29.083C121.915 29.5713 122.356 30.167 122.645 30.8701C122.938 31.5684 123.084 32.3545 123.084 33.2285C123.084 34.0586 122.94 34.8276 122.652 35.5356C122.364 36.2388 121.924 36.8491 121.333 37.3667C120.743 37.8794 119.996 38.2822 119.092 38.5752C118.189 38.8633 117.125 39.0073 115.899 39.0073L111.688 39V27.5522ZM116.456 36.9932C117.149 36.9932 117.757 36.9053 118.279 36.7295C118.802 36.5488 119.236 36.2949 119.583 35.9678C119.935 35.6406 120.198 35.2451 120.374 34.7812C120.55 34.3174 120.638 33.7998 120.638 33.2285C120.638 32.667 120.55 32.1616 120.374 31.7124C120.198 31.2583 119.935 30.875 119.583 30.5625C119.236 30.2451 118.802 30.001 118.279 29.8301C117.757 29.6592 117.149 29.5737 116.456 29.5737H114.009V36.9932H116.456Z" fill="white"/>
</svg>
